<svg xmlns="http://www.w3.org/2000/svg" viewBox="0 0 1600 1000" width="1600" height="1000" role="img">
<defs>
<radialGradient id="g" cx="50%" cy="42%" r="72%">
<stop offset="0" stop-color="#0E2D4D" stop-opacity=".55"/>
<stop offset="1" stop-color="#0E2D4D" stop-opacity="0"/>
</radialGradient>
<marker id="ar" viewBox="0 0 12 12" refX="10" refY="6" markerWidth="7" markerHeight="7" orient="auto">
<path d="M1 1 L10 6 L1 11" fill="none" stroke="#35CCBA" stroke-width="2" stroke-linecap="round" stroke-linejoin="round"/>
</marker>
</defs>
<rect width="1600" height="1000" fill="#10161A"/>
<rect width="1600" height="1000" fill="url(#g)"/>
<g fill="none" stroke-linecap="round" stroke-linejoin="round"><rect x="260" y="230" width="1080" height="140" rx="70" fill="none" stroke="#35CCBA" stroke-width="3" opacity="0.8"/><circle cx="332" cy="300" r="12" fill="#35CCBA" opacity="0.9" stroke="none"/><path d="M378 282 H1158" stroke="#9FB3C6" stroke-width="3" opacity="0.45"/><path d="M378 320 H846" stroke="#9FB3C6" stroke-width="3" opacity="0.45"/><path d="M722 392 L240 508" stroke="#35CCBA" stroke-width="4" opacity="0.5" marker-end="url(#ar)"/><path d="M150 575 a90 29 0 0 1 180 0 v150 a90 29 0 0 1 -180 0 z" stroke="#496683" stroke-width="3" opacity="0.9"/><path d="M150 575 a90 29 0 0 0 180 0" stroke="#496683" stroke-width="3" opacity="0.9"/><text x="240.0" y="816" font-family="'Helvetica Neue', Helvetica, Arial, sans-serif" font-size="44" fill="#496683" font-weight="600" letter-spacing="2.4" text-anchor="middle" stroke="none">WAREHOUSE</text><path d="M800 392 L800 508" stroke="#35CCBA" stroke-width="4" opacity="0.5" marker-end="url(#ar)"/><path d="M710 575 a90 29 0 0 1 180 0 v150 a90 29 0 0 1 -180 0 z" stroke="#496683" stroke-width="3" opacity="0.9"/><path d="M710 575 a90 29 0 0 0 180 0" stroke="#496683" stroke-width="3" opacity="0.9"/><text x="800.0" y="816" font-family="'Helvetica Neue', Helvetica, Arial, sans-serif" font-size="44" fill="#496683" font-weight="600" letter-spacing="2.4" text-anchor="middle" stroke="none">LAKEHOUSE</text><path d="M878 392 L1360 508" stroke="#35CCBA" stroke-width="4" opacity="0.5" marker-end="url(#ar)"/><path d="M1270 575 a90 29 0 0 1 180 0 v150 a90 29 0 0 1 -180 0 z" stroke="#496683" stroke-width="3" opacity="0.9"/><path d="M1270 575 a90 29 0 0 0 180 0" stroke="#496683" stroke-width="3" opacity="0.9"/><text x="1360.0" y="816" font-family="'Helvetica Neue', Helvetica, Arial, sans-serif" font-size="44" fill="#496683" font-weight="600" letter-spacing="2.4" text-anchor="middle" stroke="none">PLANNING</text><text x="96" y="132" font-family="'Helvetica Neue', Helvetica, Arial, sans-serif" font-size="50" fill="#35CCBA" font-weight="700" letter-spacing="5" text-anchor="start" stroke="none" opacity=".85">METRIC QUESTION</text><path d="M96 178 H666" stroke="#35CCBA" stroke-width="3" opacity=".35"/></g></svg>