<svg xmlns="http://www.w3.org/2000/svg" viewBox="0 0 1600 1000" width="1600" height="1000" role="img">
<defs>
<radialGradient id="g" cx="50%" cy="42%" r="72%">
<stop offset="0" stop-color="#0E2D4D" stop-opacity=".55"/>
<stop offset="1" stop-color="#0E2D4D" stop-opacity="0"/>
</radialGradient>
<linearGradient id="fade" x1="0" y1="0" x2="1" y2="0">
<stop offset="0" stop-color="#35CCBA" stop-opacity=".9"/>
<stop offset="1" stop-color="#35CCBA" stop-opacity=".25"/>
</linearGradient>
<marker id="ar" viewBox="0 0 12 12" refX="10" refY="6" markerWidth="8" markerHeight="8" orient="auto">
<path d="M1 1 L10 6 L1 11" fill="none" stroke="#35CCBA" stroke-width="2" stroke-linecap="round" stroke-linejoin="round"/>
</marker>
</defs>
<rect width="1600" height="1000" fill="#10161A"/>
<rect width="1600" height="1000" fill="url(#g)"/>
<g fill="none" stroke-linecap="round" stroke-linejoin="round"><rect x="250" y="240" width="620" height="540" rx="14" fill="none" stroke="#496683" stroke-width="2" opacity="0.9"/><path d="M250 320 H870" stroke="#496683" stroke-width="2" opacity=".7"/><path d="M300 380 H780.0" stroke="#496683" stroke-width="2" opacity="0.4"/><path d="M300 432 H712.8" stroke="#496683" stroke-width="2" opacity="0.4"/><path d="M300 484 H645.5999999999999" stroke="#496683" stroke-width="2" opacity="0.4"/><path d="M300 536 H780.0" stroke="#496683" stroke-width="2" opacity="0.4"/><path d="M300 588 H712.8" stroke="#496683" stroke-width="2" opacity="0.4"/><path d="M300 640 H645.5999999999999" stroke="#496683" stroke-width="2" opacity="0.4"/><path d="M300 692 H780.0" stroke="#496683" stroke-width="2" opacity="0.4"/><circle cx="842" cy="374" r="8" fill="#35CCBA" opacity="0.9" stroke="none"/><path d="M842 374 C961.0 374.0, 961.0 340, 1080 340" stroke="#35CCBA" stroke-width="2" opacity="0.5" marker-end="url(#ar)"/><rect x="1090" y="300" width="300" height="82" rx="10" fill="none" stroke="#35CCBA" stroke-width="2" opacity="0.6"/><text x="1115" y="348" font-family="'Helvetica Neue', Helvetica, Arial, sans-serif" font-size="21" fill="#496683" font-weight="600" letter-spacing="1.5" text-anchor="start" stroke="none">SOURCE PAGE</text><circle cx="842" cy="426" r="8" fill="#35CCBA" opacity="0.9" stroke="none"/><path d="M842 426 C961.0 426.0, 961.0 530, 1080 530" stroke="#35CCBA" stroke-width="2" opacity="0.5" marker-end="url(#ar)"/><rect x="1090" y="490" width="300" height="82" rx="10" fill="none" stroke="#35CCBA" stroke-width="2" opacity="0.6"/><text x="1115" y="538" font-family="'Helvetica Neue', Helvetica, Arial, sans-serif" font-size="21" fill="#496683" font-weight="600" letter-spacing="1.5" text-anchor="start" stroke="none">SOURCE PAGE</text><circle cx="842" cy="478" r="8" fill="#35CCBA" opacity="0.9" stroke="none"/><path d="M842 478 C961.0 478.0, 961.0 720, 1080 720" stroke="#35CCBA" stroke-width="2" opacity="0.5" marker-end="url(#ar)"/><rect x="1090" y="680" width="300" height="82" rx="10" fill="none" stroke="#35CCBA" stroke-width="2" opacity="0.6"/><text x="1115" y="728" font-family="'Helvetica Neue', Helvetica, Arial, sans-serif" font-size="21" fill="#496683" font-weight="600" letter-spacing="1.5" text-anchor="start" stroke="none">SOURCE PAGE</text><text x="560" y="296" font-family="'Helvetica Neue', Helvetica, Arial, sans-serif" font-size="22" fill="#9FB3C6" font-weight="600" letter-spacing="3" text-anchor="middle" stroke="none">CASE FILE</text><text x="96" y="100" font-family="'Helvetica Neue', Helvetica, Arial, sans-serif" font-size="25" fill="#35CCBA" font-weight="700" letter-spacing="5" text-anchor="start" stroke="none" opacity=".85">EVIDENCE GATHERED</text><path d="M96 132 H370" stroke="#35CCBA" stroke-width="2" opacity=".35"/></g></svg>