<svg xmlns="http://www.w3.org/2000/svg" viewBox="0 0 1600 1000" width="1600" height="1000" role="img">
<defs>
<radialGradient id="g" cx="50%" cy="42%" r="72%">
<stop offset="0" stop-color="#0E2D4D" stop-opacity=".55"/>
<stop offset="1" stop-color="#0E2D4D" stop-opacity="0"/>
</radialGradient>
<linearGradient id="fade" x1="0" y1="0" x2="1" y2="0">
<stop offset="0" stop-color="#35CCBA" stop-opacity=".9"/>
<stop offset="1" stop-color="#35CCBA" stop-opacity=".25"/>
</linearGradient>
<marker id="ar" viewBox="0 0 12 12" refX="10" refY="6" markerWidth="8" markerHeight="8" orient="auto">
<path d="M1 1 L10 6 L1 11" fill="none" stroke="#35CCBA" stroke-width="2" stroke-linecap="round" stroke-linejoin="round"/>
</marker>
</defs>
<rect width="1600" height="1000" fill="#10161A"/>
<rect width="1600" height="1000" fill="url(#g)"/>
<g fill="none" stroke-linecap="round" stroke-linejoin="round"><rect x="230" y="232.0" width="420" height="96" rx="10" fill="none" stroke="#496683" stroke-width="2" opacity="1.0"/><text x="262" y="290.0" font-family="'Helvetica Neue', Helvetica, Arial, sans-serif" font-size="24" fill="#496683" font-weight="600" letter-spacing="1.6" text-anchor="start" stroke="none">ORDER SYSTEM</text><path d="M650 280.0 C842.0 280.0, 842.0 480, 1034 480" stroke="#35CCBA" stroke-width="2" opacity="0.5" marker-end="url(#ar)"/><rect x="230" y="382.0" width="420" height="96" rx="10" fill="none" stroke="#496683" stroke-width="2" opacity="1.0"/><text x="262" y="440.0" font-family="'Helvetica Neue', Helvetica, Arial, sans-serif" font-size="24" fill="#496683" font-weight="600" letter-spacing="1.6" text-anchor="start" stroke="none">LOGISTICS SYSTEM</text><path d="M650 430.0 C842.0 430.0, 842.0 480, 1034 480" stroke="#35CCBA" stroke-width="2" opacity="0.5" marker-end="url(#ar)"/><rect x="230" y="532.0" width="420" height="96" rx="10" fill="none" stroke="#496683" stroke-width="2" opacity="1.0"/><text x="262" y="590.0" font-family="'Helvetica Neue', Helvetica, Arial, sans-serif" font-size="24" fill="#496683" font-weight="600" letter-spacing="1.6" text-anchor="start" stroke="none">LEDGER</text><path d="M650 580.0 C842.0 580.0, 842.0 480, 1034 480" stroke="#35CCBA" stroke-width="2" opacity="0.5" marker-end="url(#ar)"/><rect x="1040" y="408" width="300" height="144" rx="14" fill="none" stroke="#35CCBA" stroke-width="2" opacity="0.95"/><path d="M1173 472 l11.899999999999999 12.75 L1207 458.4" stroke="#35CCBA" stroke-width="3" opacity="1.0"/><path d="M1072 510 H1272.0" stroke="#9FB3C6" stroke-width="2" opacity="0.5"/><path d="M1072 532 H1244.0" stroke="#9FB3C6" stroke-width="2" opacity="0.5"/><text x="1190" y="628" font-family="'Helvetica Neue', Helvetica, Arial, sans-serif" font-size="26" fill="#9FB3C6" font-weight="600" letter-spacing="2.2" text-anchor="middle" stroke="none">ONE ANSWER</text><text x="96" y="100" font-family="'Helvetica Neue', Helvetica, Arial, sans-serif" font-size="25" fill="#35CCBA" font-weight="700" letter-spacing="5" text-anchor="start" stroke="none" opacity=".85">RECONCILED</text><path d="M96 132 H257" stroke="#35CCBA" stroke-width="2" opacity=".35"/></g></svg>